<svg xmlns="http://www.w3.org/2000/svg" viewBox="0 0 100 100">
  <defs>
    <linearGradient id="grad" x1="0%" y1="0%" x2="100%" y2="100%">
      <stop offset="0%" style="stop-color:#3b82f6;stop-opacity:1" />
      <stop offset="100%" style="stop-color:#1d4ed8;stop-opacity:1" />
    </linearGradient>
  </defs>
  
  <!-- Background circle -->
  <circle cx="50" cy="50" r="48" fill="url(#grad)"/>
  
  <!-- Wrench icon -->
  <path d="M35 30 L35 45 L30 50 L30 65 L35 70 L40 70 L45 65 L45 50 L40 45 L40 30 Z" 
        fill="white" stroke="white" stroke-width="2"/>
  
  <!-- Screwdriver icon -->
  <path d="M55 30 L55 45 L60 50 L60 65 L65 70 L70 70 L70 30 Z" 
        fill="white" stroke="white" stroke-width="2"/>
  
  <!-- Handle details -->
  <rect x="33" y="32" width="9" height="3" fill="#1d4ed8" rx="1"/>
  <rect x="33" y="37" width="9" height="3" fill="#1d4ed8" rx="1"/>
  <rect x="58" y="32" width="9" height="3" fill="#1d4ed8" rx="1"/>
  <rect x="58" y="37" width="9" height="3" fill="#1d4ed8" rx="1"/>
</svg>
